<svg viewBox="0 0 24 24" fill="none" xmlns="http://www.w3.org/2000/svg">
  <path d="M12 2L14.4 7.2L20 8.4L16 12.4L17.2 18L12 15.2L6.8 18L8 12.4L4 8.4L9.6 7.2L12 2Z" 
    fill="url(#gradient-stars)" />
  <path d="M12 21C16.9706 21 21 16.9706 21 12C21 7.02944 16.9706 3 12 3C7.02944 3 3 7.02944 3 12C3 16.9706 7.02944 21 12 21Z" 
    stroke="url(#gradient-circle)" strokeWidth="2" />
  <path d="M12 7L14 12L19 12L15 15L16 20L12 17L8 20L9 15L5 12L10 12L12 7Z" 
    fill="url(#gradient-shuriken)" />
  <defs>
    <linearGradient id="gradient-stars" x1="4" y1="2" x2="20" y2="18" gradientUnits="userSpaceOnUse">
      <stop stopColor="#EC4899" />
      <stop offset="1" stopColor="#8B5CF6" />
    </linearGradient>
    <linearGradient id="gradient-circle" x1="3" y1="3" x2="21" y2="21" gradientUnits="userSpaceOnUse">
      <stop stopColor="#10B981" />
      <stop offset="1" stopColor="#3B82F6" />
    </linearGradient>
    <linearGradient id="gradient-shuriken" x1="5" y1="7" x2="19" y2="20" gradientUnits="userSpaceOnUse">
      <stop stopColor="#10B981" />
      <stop offset="1" stopColor="#3B82F6" />
    </linearGradient>
  </defs>
</svg> 